<svg xmlns="http://www.w3.org/2000/svg" xmlns:xlink="http://www.w3.org/1999/xlink" width="912" height="217" viewBox="0 0 912 217">
  <defs>
    <clipPath id="clip-logo">
      <rect width="912" height="217"/>
    </clipPath>
  </defs>
  <g id="logo" clip-path="url(#clip-logo)">
    <path id="Path_38" data-name="Path 38" d="M120.363,84.089c9.582-6.778,14.431-16.7,14.431-29.579,0-10.929-3.71-20.193-11.039-27.515S106.825,15.956,95.223,15.956H33.366a5.724,5.724,0,0,0-6.1,6.1,5.721,5.721,0,0,0,6.1,6.1l14.18-.018.012,88.84H29.123a6.123,6.123,0,1,0,0,12.245H47.558v22.611H33.36a6.1,6.1,0,0,0,0,12.209h69.976c13.1,0,23.431-3.79,30.693-11.272,7.237-7.457,10.9-17.113,10.9-28.7C144.933,103.247,136.68,89.832,120.363,84.089ZM59.736,28.171H95.223c8.559,0,15.117,2.394,20.046,7.31s7.317,11.021,7.317,18.625a26.183,26.183,0,0,1-7.457,19.072c-4.984,5.174-11.168,7.684-18.888,7.684l-36.491.018L59.736,28.2S59.479,28.171,59.736,28.171ZM125,144.128c-5.2,5.2-12.282,7.721-21.668,7.721l-43.587.025-.006-22.636H84.227a6.123,6.123,0,1,0,0-12.245H59.742l-.006-23.885s-.263-.037-.006-.037h43.606c9.386,0,16.47,2.523,21.668,7.721s7.721,12.288,7.721,21.668S130.2,138.93,125,144.128Z" transform="translate(-15.885 9.935)"/>
    <path id="Path_39" data-name="Path 39" d="M110.052,103.12a105.282,105.282,0,0,0-20.127-7.371q-6.351-1.664-9.1-2.391V40.067a38.777,38.777,0,0,1,7.7,2.362c9.864,4.037,15.654,9.81,22.3,17.157V72A5.889,5.889,0,0,0,122.6,72V35.212a5.886,5.886,0,1,0-11.772,0v7.842c-1.366-1.067-.447-2.3-2.4-3.685-7.508-5.379-16.782-9.118-27.605-11.128V19.719a5.513,5.513,0,0,0-5.886-5.886,5.516,5.516,0,0,0-5.886,5.886v7.687c-15.273.256-26.729,3.763-34.07,10.436C27.271,44.861,23.359,54.332,23.359,66a27.048,27.048,0,0,0,5.331,16.5A39.726,39.726,0,0,0,43.319,94.133c5.671,2.809,14.319,5.832,25.739,9v57.036a45.955,45.955,0,0,1-8.54-2.266c-10.561-4.031-15.267-6.53-21.558-13.364V131.16a5.516,5.516,0,0,0-5.886-5.886,5.521,5.521,0,0,0-5.892,5.886V167.95a5.513,5.513,0,0,0,5.886,5.886,5.516,5.516,0,0,0,5.886-5.886V160.1c10.3,8.26,17.867,10.275,30.1,11.957v8.379a5.516,5.516,0,0,0,5.886,5.886,5.519,5.519,0,0,0,5.886-5.886v-7.675c15.422-.185,27.5-3.87,35.919-10.955,8.8-7.395,13.263-17.485,13.263-29.967a27.984,27.984,0,0,0-5.331-17.074A39.764,39.764,0,0,0,110.052,103.12Zm-41-13.048q-3.077-.912-6.751-1.962a93.384,93.384,0,0,1-12.565-4.693A29.519,29.519,0,0,1,39.174,75.5a16.7,16.7,0,0,1-4.037-11.241c0-7.031,2.761-12.81,8.444-17.682,5.463-4.675,14.026-7.156,25.476-7.395V90.071Zm43.856,67.168c-.1.083-.227.143-.328.221.865-.7,1.7-1.431,2.469-2.189C114.381,155.951,113.665,156.6,112.908,157.239Zm-4.3-4.2c-6.369,5.1-15.714,7.783-27.778,7.955V106.334l9.387,2.618a95.173,95.173,0,0,1,13.418,4.878,29.641,29.641,0,0,1,10.561,7.914,16.755,16.755,0,0,1,4.043,11.247A24.31,24.31,0,0,1,108.608,153.035Z" transform="translate(462.649 -0.139)"/>
    <path id="Path_41" data-name="Path 41" d="M50.964,175.86q-17.67,0-28.458-11.625T10.23,133.08l-.186-7.44.186-7.44q1.488-19.344,12.183-31.062T50.964,75.42q19.344,0,30.225,12.834T92.07,123.408v2.79a3.855,3.855,0,0,1-1.209,2.976,4.348,4.348,0,0,1-3.069,1.116H21.576v1.86a41.137,41.137,0,0,0,4,16.275,30.71,30.71,0,0,0,10.137,12.09,25.921,25.921,0,0,0,15.252,4.557q10.23,0,16.647-4t9.207-8.091a13.406,13.406,0,0,1,2.511-2.79,5.947,5.947,0,0,1,3.069-.558h2.976a4.211,4.211,0,0,1,2.79.93,3,3,0,0,1,1.116,2.418q0,3.906-4.929,9.393a41,41,0,0,1-13.671,9.486A46.873,46.873,0,0,1,50.964,175.86Zm29.76-55.986v-.744q0-14.322-8.091-23.622t-21.669-9.3q-13.578,0-21.483,9.3T21.576,119.13v.744Zm33.852,89.466a3.814,3.814,0,0,1-3.72-3.72,13.155,13.155,0,0,1,1.116-3.72l14.322-33.48L90.768,84.72A13.155,13.155,0,0,1,89.652,81a3.814,3.814,0,0,1,3.72-3.72h3.906a4.417,4.417,0,0,1,4.278,2.79L132.8,153.726,164.8,80.07a4.653,4.653,0,0,1,4.278-2.79h3.72a3.814,3.814,0,0,1,3.72,3.72,13.155,13.155,0,0,1-1.116,3.72L122.574,206.55a4.417,4.417,0,0,1-4.278,2.79Zm90.21-33.48a37.249,37.249,0,0,1-16.554-3.72A31.946,31.946,0,0,1,176.049,162.1a23.328,23.328,0,0,1-4.557-13.95q0-12.276,9.951-20.088t26.877-10.044l29.388-4.092v-6.51q0-10.23-6.231-15.717t-19.065-5.487q-9.486,0-15.531,3.72t-7.719,8.928a6.656,6.656,0,0,1-1.767,3.069,4.125,4.125,0,0,1-2.7.837h-2.6A4.128,4.128,0,0,1,178,98.67q0-4.092,3.72-9.579t11.532-9.579q7.812-4.092,19.158-4.092,19.9,0,28.272,9.486t8.37,23.064v61.938A3.84,3.84,0,0,1,244.962,174H241.8a3.84,3.84,0,0,1-4.092-4.092v-8.742a32.729,32.729,0,0,1-12,10.416Q217.806,175.86,204.786,175.86Zm1.86-10.788q13.578,0,22.32-8.928t8.742-25.668v-6.324L213.714,127.5q-15.252,2.046-23.064,7.068t-7.812,12.648A14.853,14.853,0,0,0,190,160.422,29.881,29.881,0,0,0,206.646,165.072ZM260.214,174a3.84,3.84,0,0,1-4.092-4.092v-3.162q0-2.046,2.6-5.766L313.41,88.068H262.074a3.84,3.84,0,0,1-4.092-4.092v-2.6a3.84,3.84,0,0,1,4.092-4.092h62.5a3.84,3.84,0,0,1,4.092,4.092v3.162q0,2.046-2.6,5.766l-54.312,72.912H328.29a3.84,3.84,0,0,1,4.092,4.092v2.6A3.84,3.84,0,0,1,328.29,174Z" transform="translate(128.885)"/>
    <path id="Path_40" data-name="Path 40" d="M41.106,175.86a37.249,37.249,0,0,1-16.554-3.72A31.946,31.946,0,0,1,12.369,162.1a23.328,23.328,0,0,1-4.557-13.95q0-12.276,9.951-20.088T44.64,118.014l29.388-4.092v-6.51q0-10.23-6.231-15.717T48.732,86.208q-9.486,0-15.531,3.72t-7.719,8.928a6.656,6.656,0,0,1-1.767,3.069,4.125,4.125,0,0,1-2.7.837h-2.6a4.128,4.128,0,0,1-4.092-4.092q0-4.092,3.72-9.579t11.532-9.579q7.812-4.092,19.158-4.092,19.9,0,28.272,9.486t8.37,23.064v61.938A3.84,3.84,0,0,1,81.282,174H78.12a3.84,3.84,0,0,1-4.092-4.092v-8.742a32.729,32.729,0,0,1-12,10.416Q54.126,175.86,41.106,175.86Zm1.86-10.788q13.578,0,22.32-8.928t8.742-25.668v-6.324L50.034,127.5q-15.252,2.046-23.064,7.068t-7.812,12.648a14.853,14.853,0,0,0,7.161,13.206A29.88,29.88,0,0,0,42.966,165.072ZM114.39,209.34a3.814,3.814,0,0,1-3.72-3.72,13.155,13.155,0,0,1,1.116-3.72l14.322-33.48L90.582,84.72A13.155,13.155,0,0,1,89.466,81a3.814,3.814,0,0,1,3.72-3.72h3.906a4.417,4.417,0,0,1,4.278,2.79l31.248,73.656L164.61,80.07a4.653,4.653,0,0,1,4.278-2.79h3.72a3.814,3.814,0,0,1,3.72,3.72,13.155,13.155,0,0,1-1.116,3.72L122.388,206.55a4.417,4.417,0,0,1-4.278,2.79ZM195.114,174a3.84,3.84,0,0,1-4.092-4.092V88.068H174.468a3.84,3.84,0,0,1-4.092-4.092v-2.6a3.84,3.84,0,0,1,4.092-4.092h16.554v-10.6q0-14.136,6.138-22.227t21.948-8.091h9.672a3.84,3.84,0,0,1,4.092,4.092v2.6a3.84,3.84,0,0,1-4.092,4.092h-9.672q-9.486,0-13.113,4.929t-3.627,15.531V77.28H226.92a3.84,3.84,0,0,1,4.092,4.092v2.6a3.84,3.84,0,0,1-4.092,4.092H202.368v81.84A3.84,3.84,0,0,1,198.276,174Zm63.426,1.86a37.249,37.249,0,0,1-16.554-3.72A31.946,31.946,0,0,1,229.8,162.1a23.328,23.328,0,0,1-4.557-13.95q0-12.276,9.951-20.088t26.877-10.044l29.388-4.092v-6.51q0-10.23-6.231-15.717t-19.065-5.487q-9.486,0-15.531,3.72t-7.719,8.928a6.656,6.656,0,0,1-1.767,3.069,4.125,4.125,0,0,1-2.7.837h-2.6a4.128,4.128,0,0,1-4.092-4.092q0-4.092,3.72-9.579t11.532-9.579q7.812-4.092,19.158-4.092,19.9,0,28.272,9.486t8.37,23.064v61.938A3.84,3.84,0,0,1,298.716,174h-3.162a3.84,3.84,0,0,1-4.092-4.092v-8.742a32.729,32.729,0,0,1-12,10.416Q271.56,175.86,258.54,175.86Zm1.86-10.788q13.578,0,22.32-8.928t8.742-25.668v-6.324L267.468,127.5q-15.252,2.046-23.064,7.068t-7.812,12.648a14.853,14.853,0,0,0,7.161,13.206A29.881,29.881,0,0,0,260.4,165.072Z" transform="translate(592.885)"/>
  </g>
</svg>
