<svg xmlns="http://www.w3.org/2000/svg" xmlns:xlink="http://www.w3.org/1999/xlink" width="912" height="217" viewBox="0 0 912 217">
  <defs>
    <clipPath id="clip-logo">
      <rect width="912" height="217"/>
    </clipPath>
  </defs>
  <g id="logo" clip-path="url(#clip-logo)">
    <path id="Path_38" data-name="Path 38" d="M120.363,84.089c9.582-6.778,14.431-16.7,14.431-29.579,0-10.929-3.71-20.193-11.039-27.515S106.825,15.956,95.223,15.956H33.366a5.724,5.724,0,0,0-6.1,6.1,5.721,5.721,0,0,0,6.1,6.1l14.18-.018.012,88.84H29.123a6.123,6.123,0,1,0,0,12.245H47.558v22.611H33.36a6.1,6.1,0,0,0,0,12.209h69.976c13.1,0,23.431-3.79,30.693-11.272,7.237-7.457,10.9-17.113,10.9-28.7C144.933,103.247,136.68,89.832,120.363,84.089ZM59.736,28.171H95.223c8.559,0,15.117,2.394,20.046,7.31s7.317,11.021,7.317,18.625a26.183,26.183,0,0,1-7.457,19.072c-4.984,5.174-11.168,7.684-18.888,7.684l-36.491.018L59.736,28.2S59.479,28.171,59.736,28.171ZM125,144.128c-5.2,5.2-12.282,7.721-21.668,7.721l-43.587.025-.006-22.636H84.227a6.123,6.123,0,1,0,0-12.245H59.742l-.006-23.885s-.263-.037-.006-.037h43.606c9.386,0,16.47,2.523,21.668,7.721s7.721,12.288,7.721,21.668S130.2,138.93,125,144.128Z" transform="translate(-15.885 9.935)"/>
    <path id="Path_39" data-name="Path 39" d="M110.052,103.12a105.282,105.282,0,0,0-20.127-7.371q-6.351-1.664-9.1-2.391V40.067a38.777,38.777,0,0,1,7.7,2.362c9.864,4.037,15.654,9.81,22.3,17.157V72A5.889,5.889,0,0,0,122.6,72V35.212a5.886,5.886,0,1,0-11.772,0v7.842c-1.366-1.067-.447-2.3-2.4-3.685-7.508-5.379-16.782-9.118-27.605-11.128V19.719a5.513,5.513,0,0,0-5.886-5.886,5.516,5.516,0,0,0-5.886,5.886v7.687c-15.273.256-26.729,3.763-34.07,10.436C27.271,44.861,23.359,54.332,23.359,66a27.048,27.048,0,0,0,5.331,16.5A39.726,39.726,0,0,0,43.319,94.133c5.671,2.809,14.319,5.832,25.739,9v57.036a45.955,45.955,0,0,1-8.54-2.266c-10.561-4.031-15.267-6.53-21.558-13.364V131.16a5.516,5.516,0,0,0-5.886-5.886,5.521,5.521,0,0,0-5.892,5.886V167.95a5.513,5.513,0,0,0,5.886,5.886,5.516,5.516,0,0,0,5.886-5.886V160.1c10.3,8.26,17.867,10.275,30.1,11.957v8.379a5.516,5.516,0,0,0,5.886,5.886,5.519,5.519,0,0,0,5.886-5.886v-7.675c15.422-.185,27.5-3.87,35.919-10.955,8.8-7.395,13.263-17.485,13.263-29.967a27.984,27.984,0,0,0-5.331-17.074A39.764,39.764,0,0,0,110.052,103.12Zm-41-13.048q-3.077-.912-6.751-1.962a93.384,93.384,0,0,1-12.565-4.693A29.519,29.519,0,0,1,39.174,75.5a16.7,16.7,0,0,1-4.037-11.241c0-7.031,2.761-12.81,8.444-17.682,5.463-4.675,14.026-7.156,25.476-7.395V90.071Zm43.856,67.168c-.1.083-.227.143-.328.221.865-.7,1.7-1.431,2.469-2.189C114.381,155.951,113.665,156.6,112.908,157.239Zm-4.3-4.2c-6.369,5.1-15.714,7.783-27.778,7.955V106.334l9.387,2.618a95.173,95.173,0,0,1,13.418,4.878,29.641,29.641,0,0,1,10.561,7.914,16.755,16.755,0,0,1,4.043,11.247A24.31,24.31,0,0,1,108.608,153.035Z" transform="translate(462.649 -0.139)"/>
    <text id="eyaz_" data-name="eyaz " transform="translate(128.885)" font-size="186" font-family="Rubik-Light, Rubik" font-weight="300" letter-spacing="-0.081em"><tspan x="0" y="174">eyaz </tspan></text>
    <text id="ayfa" transform="translate(592.885)" font-size="186" font-family="Rubik-Light, Rubik" font-weight="300" letter-spacing="-0.081em"><tspan x="0" y="174">ayfa</tspan></text>
  </g>
</svg>
